<?xml version="1.0" standalone="no"?>
<!DOCTYPE svg PUBLIC "-//W3C//DTD SVG 20010904//EN"
 "http://www.w3.org/TR/2001/REC-SVG-20010904/DTD/svg10.dtd">
<svg version="1.0" xmlns="http://www.w3.org/2000/svg"
 width="454.000000pt" height="454.000000pt" viewBox="0 0 454.000000 454.000000"
 preserveAspectRatio="xMidYMid meet">
<metadata>
Created by potrace 1.14, written by Peter Selinger 2001-2017
</metadata>
<g transform="translate(0.000000,454.000000) scale(0.100000,-0.100000)"
fill="#000000" stroke="none">
<path d="M1260 4110 c-531 -230 -984 -428 -1007 -440 -29 -16 -48 -35 -62 -64
l-20 -41 105 -1110 c84 -878 110 -1117 123 -1145 14 -28 187 -153 912 -662
492 -346 909 -632 926 -637 20 -6 46 -6 66 0 19 5 436 292 928 637 722 507
897 634 912 662 14 28 38 255 122 1143 l105 1109 -19 43 c-12 28 -31 50 -52
60 -18 10 -473 208 -1012 441 -791 342 -988 424 -1021 423 -31 -1 -284 -106
-1006 -419z m1424 160 c223 -96 402 -178 398 -182 -4 -4 -188 -95 -409 -203
l-402 -195 -348 169 c-191 92 -377 183 -412 200 l-64 33 409 178 c225 98 412
177 416 177 3 -1 189 -81 412 -177z m59 -971 c388 -189 456 -225 442 -235 -35
-26 -903 -504 -914 -504 -12 0 -908 494 -924 509 -8 8 912 461 928 456 6 -1
216 -103 468 -226z m1520 154 c-2 -16 -23 -244 -48 -508 -25 -264 -47 -483
-48 -488 -2 -7 -770 -497 -774 -494 -5 6 55 1058 61 1064 8 8 798 451 807 452
3 1 4 -11 2 -26z m-1038 -1850 c-3 -38 -15 -248 -26 -468 -11 -220 -24 -404
-28 -408 -5 -5 -190 -136 -412 -292 l-404 -284 -3 482 c-1 285 2 485 7 490 15
15 855 546 864 547 5 0 6 -30 2 -67z"/>
</g>
</svg>
